<svg width="19" height="17" viewBox="0 0 19 17" fill="none" xmlns="http://www.w3.org/2000/svg">
<path d="M11.9433 15.6761L18.2273 9.39205C18.4628 9.15634 18.5951 8.83676 18.5951 8.50355C18.5951 8.17034 18.4628 7.85076 18.2273 7.61505L11.9433 1.32805C11.7055 1.10296 11.3893 0.979522 11.0619 0.984005C10.7345 0.988487 10.4218 1.12053 10.1903 1.35205C9.95878 1.58357 9.82673 1.89629 9.82225 2.22368C9.81777 2.55106 9.9412 2.86728 10.1663 3.10505L14.3023 7.24405H2.25729C2.08931 7.23931 1.92207 7.26831 1.76548 7.32932C1.6089 7.39033 1.46613 7.48213 1.34563 7.59927C1.22514 7.71642 1.12935 7.85653 1.06395 8.01134C0.998543 8.16615 0.964844 8.3325 0.964844 8.50055C0.964844 8.66861 0.998543 8.83496 1.06395 8.98976C1.12935 9.14457 1.22514 9.28469 1.34563 9.40183C1.46613 9.51898 1.6089 9.61077 1.76548 9.67178C1.92207 9.7328 2.08931 9.76179 2.25729 9.75705H14.3023L10.1643 13.8951C9.92812 14.131 9.79533 14.451 9.79514 14.7848C9.79496 15.1187 9.92738 15.4389 10.1633 15.6751C10.3992 15.9112 10.7193 16.044 11.0531 16.0442C11.3869 16.0444 11.7071 15.912 11.9433 15.6761Z" fill="black"/>
</svg>
