<svg width="16" height="17" viewBox="0 0 16 17" fill="none" xmlns="http://www.w3.org/2000/svg">
<path d="M14.703 7.54998L15.487 8.33698C15.566 8.41567 15.6286 8.50917 15.6714 8.61214C15.7141 8.7151 15.7361 8.82549 15.7361 8.93698C15.7361 9.04846 15.7141 9.15885 15.6714 9.26182C15.6286 9.36478 15.566 9.45829 15.487 9.53698L8.59998 16.427C8.52129 16.506 8.42778 16.5686 8.32482 16.6114C8.22186 16.6541 8.11147 16.6761 7.99998 16.6761C7.88849 16.6761 7.7781 16.6541 7.67514 16.6114C7.57218 16.5686 7.47867 16.506 7.39998 16.427L0.509981 9.53698C0.431005 9.45829 0.368343 9.36478 0.325586 9.26182C0.282829 9.15885 0.260818 9.04846 0.260818 8.93698C0.260818 8.82549 0.282829 8.7151 0.325586 8.61214C0.368343 8.50917 0.431005 8.41567 0.509981 8.33698L1.29698 7.54998C1.37722 7.47009 1.47257 7.407 1.57747 7.36439C1.68237 7.32178 1.7947 7.30051 1.90792 7.30181C2.02113 7.30311 2.13295 7.32697 2.23684 7.37198C2.34073 7.417 2.43461 7.48227 2.51298 7.56398L6.58698 11.835V1.64898C6.58645 1.42398 6.67525 1.20797 6.83388 1.04841C6.99251 0.888844 7.20799 0.79877 7.43298 0.797976L8.56798 0.797976C8.67981 0.797712 8.79059 0.819544 8.89396 0.862217C8.99732 0.904891 9.09124 0.967565 9.17032 1.04664C9.24939 1.12572 9.31207 1.21963 9.35474 1.323C9.39741 1.42637 9.41925 1.53715 9.41898 1.64898V11.835L13.487 7.56398C13.5649 7.4814 13.6586 7.41537 13.7625 7.3698C13.8665 7.32424 13.9785 7.30008 14.092 7.29877C14.2055 7.29747 14.3181 7.31904 14.4231 7.3622C14.528 7.40536 14.6232 7.46922 14.703 7.54998Z" fill="black"/>
</svg>
