<svg width="32" height="33" viewBox="0 0 32 33" fill="none" xmlns="http://www.w3.org/2000/svg">
<path id="Icon awesome-arrow-right" d="M29.4469 14.143L31.0079 15.704C31.165 15.8602 31.2897 16.0459 31.3748 16.2505C31.4599 16.4551 31.5037 16.6744 31.5037 16.896C31.5037 17.1175 31.4599 17.3369 31.3748 17.5415C31.2897 17.746 31.165 17.9318 31.0079 18.088L17.3469 31.756C17.1907 31.9131 17.005 32.0378 16.8004 32.1228C16.5959 32.2079 16.3765 32.2517 16.1549 32.2517C15.9334 32.2517 15.714 32.2079 15.5095 32.1228C15.3049 32.0378 15.1192 31.9131 14.9629 31.756L1.28995 18.087C1.13284 17.9308 1.00817 17.745 0.9231 17.5405C0.838026 17.3359 0.794228 17.1165 0.794228 16.895C0.794228 16.6734 0.838026 16.4541 0.9231 16.2495C1.00817 16.0449 1.13284 15.8592 1.28995 15.703L2.84695 14.143C3.00605 13.9844 3.19517 13.8592 3.40326 13.7746C3.61135 13.69 3.83422 13.6478 4.05883 13.6504C4.28343 13.653 4.50526 13.7004 4.71133 13.7898C4.9174 13.8792 5.10357 14.0088 5.25895 14.171L13.3339 22.648V2.43599C13.3333 2.21414 13.3765 1.99434 13.4611 1.78924C13.5457 1.58415 13.67 1.3978 13.8269 1.24093C13.9838 1.08405 14.1701 0.959736 14.3752 0.87514C14.5803 0.790544 14.8001 0.747333 15.0219 0.747993L17.2719 0.747993C17.4937 0.747465 17.7134 0.790773 17.9184 0.875429C18.1234 0.960084 18.3096 1.08442 18.4664 1.24128C18.6231 1.39814 18.7474 1.58445 18.8319 1.78948C18.9164 1.99451 18.9596 2.21422 18.9589 2.43599V22.648L27.0309 14.171C27.1855 14.0067 27.3716 13.8753 27.5782 13.7846C27.7847 13.6939 28.0074 13.6458 28.233 13.6432C28.4586 13.6405 28.6823 13.6835 28.8909 13.7693C29.0995 13.8552 29.2886 13.9823 29.4469 14.143Z" fill="black"/>
</svg>
