<svg width="32" height="32" viewBox="0 0 32 32" fill="none" xmlns="http://www.w3.org/2000/svg">
<path d="M13.6431 2.70003L15.2041 1.13903C15.3603 0.981924 15.546 0.857252 15.7506 0.772179C15.9551 0.687106 16.1745 0.643311 16.3961 0.643311C16.6176 0.643311 16.837 0.687106 17.0415 0.772179C17.2461 0.857252 17.4318 0.981924 17.5881 1.13903L31.2561 14.8C31.4132 14.9562 31.5378 15.142 31.6229 15.3465C31.708 15.5511 31.7518 15.7705 31.7518 15.992C31.7518 16.2136 31.708 16.4329 31.6229 16.6375C31.5378 16.8421 31.4132 17.0278 31.2561 17.184L17.5871 30.857C17.4308 31.0141 17.2451 31.1388 17.0405 31.2239C16.836 31.3089 16.6166 31.3527 16.3951 31.3527C16.1735 31.3527 15.9541 31.3089 15.7496 31.2239C15.545 31.1388 15.3593 31.0141 15.2031 30.857L13.6431 29.3C13.4845 29.1409 13.3593 28.9518 13.2747 28.7437C13.1901 28.5356 13.1479 28.3128 13.1505 28.0881C13.1531 27.8635 13.2005 27.6417 13.2899 27.4356C13.3793 27.2296 13.5088 27.0434 13.6711 26.888L22.1481 18.813H1.93605C1.7142 18.8137 1.4944 18.7705 1.2893 18.6859C1.08421 18.6013 0.897863 18.477 0.740986 18.3201C0.584109 18.1632 0.459797 17.9769 0.375201 17.7718C0.290605 17.5667 0.247394 17.3469 0.248054 17.125V14.875C0.247526 14.6533 0.290835 14.4336 0.37549 14.2286C0.460145 14.0236 0.584478 13.8374 0.741342 13.6806C0.898205 13.5238 1.08451 13.3996 1.28954 13.3151C1.49457 13.2305 1.71428 13.1874 1.93605 13.188H22.1481L13.6711 5.11603C13.5068 4.96147 13.3753 4.77534 13.2846 4.5688C13.1939 4.36226 13.1458 4.13954 13.1432 3.91398C13.1406 3.68842 13.1835 3.46465 13.2694 3.25606C13.3553 3.04747 13.4824 2.85835 13.6431 2.70003Z" fill="black"/>
</svg>
