<svg width="30" height="30" viewBox="0 0 30 30" fill="none" xmlns="http://www.w3.org/2000/svg">
<path d="M14.95 0.375C12.0574 0.375 9.22981 1.23274 6.82474 2.83976C4.41967 4.44677 2.54515 6.73089 1.43822 9.40325C0.331288 12.0756 0.0416642 15.0162 0.605973 17.8532C1.17028 20.6902 2.56318 23.2961 4.60852 25.3414C6.65386 27.3868 9.25979 28.7797 12.0968 29.344C14.9337 29.9083 17.8743 29.6187 20.5467 28.5117C23.2191 27.4048 25.5032 25.5303 27.1102 23.1252C28.7172 20.7201 29.575 17.8926 29.575 15C29.5752 13.0793 29.1971 11.1774 28.4622 9.40294C27.7274 7.62844 26.6501 6.01609 25.292 4.65798C23.9339 3.29987 22.3215 2.22261 20.547 1.48773C18.7725 0.752845 16.8706 0.374737 14.95 0.375ZM18.655 20.295L14.95 16.589L11.245 20.294C11.1417 20.403 11.0176 20.4902 10.8801 20.5504C10.7425 20.6107 10.5943 20.6428 10.4442 20.6448C10.2941 20.6468 10.145 20.6187 10.0059 20.5622C9.86682 20.5057 9.74045 20.4219 9.63427 20.3157C9.5281 20.2095 9.44428 20.0831 9.38775 19.944C9.33122 19.8049 9.30314 19.6559 9.30516 19.5058C9.30719 19.3556 9.33927 19.2074 9.39952 19.0699C9.45977 18.9323 9.54696 18.8083 9.65596 18.705L13.361 15L9.65596 11.295C9.45452 11.0824 9.34401 10.7996 9.34795 10.5068C9.3519 10.2139 9.46998 9.93419 9.67706 9.72711C9.88415 9.52002 10.1639 9.40194 10.4567 9.398C10.7496 9.39405 11.0324 9.50456 11.245 9.706L14.95 13.411L18.655 9.706C18.7582 9.59701 18.8823 9.50981 19.0198 9.44956C19.1574 9.38931 19.3056 9.35723 19.4557 9.35521C19.6059 9.35319 19.7549 9.38127 19.894 9.43779C20.0331 9.49432 20.1595 9.57814 20.2656 9.68432C20.3718 9.79049 20.4556 9.91686 20.5122 10.056C20.5687 10.1951 20.5968 10.3441 20.5948 10.4942C20.5927 10.6444 20.5606 10.7926 20.5004 10.9301C20.4401 11.0677 20.353 11.1917 20.244 11.295L16.539 15L20.244 18.705C20.4534 18.9164 20.5708 19.2019 20.5708 19.4995C20.5708 19.7971 20.4534 20.0826 20.244 20.294C20.1402 20.3993 20.0166 20.483 19.8802 20.5401C19.7439 20.5972 19.5975 20.6267 19.4497 20.6268C19.3018 20.6269 19.1554 20.5976 19.019 20.5406C18.8826 20.4837 18.7588 20.4002 18.655 20.295Z" fill="#6A6A6A"/>
</svg>
