<svg width="15" height="14" viewBox="0 0 15 14" fill="none" xmlns="http://www.w3.org/2000/svg">
<path id="Icon metro-copyright" d="M10.754 8.47805V9.45305C10.7549 9.75245 10.6374 10.0401 10.427 10.253C10.1926 10.4964 9.9046 10.6817 9.58595 10.7941C9.24331 10.9223 8.88991 11.0197 8.52995 11.0851C8.18333 11.1499 7.83158 11.1833 7.47895 11.185C6.90994 11.1988 6.3442 11.095 5.81715 10.8801C5.2901 10.6652 4.81309 10.3438 4.41595 9.93605C4.01136 9.52979 3.69367 9.04546 3.48221 8.51252C3.27076 7.97958 3.16996 7.40918 3.18595 6.83605C3.17353 6.27466 3.27494 5.71657 3.48407 5.19544C3.69321 4.67431 4.00573 4.20094 4.40279 3.80388C4.79985 3.40682 5.27322 3.0943 5.79434 2.88517C6.31547 2.67603 6.87357 2.57462 7.43495 2.58705C7.66051 2.58832 7.88583 2.60167 8.10995 2.62705C8.39086 2.66026 8.66894 2.71407 8.94195 2.78805C9.22756 2.85923 9.50504 2.95977 9.76995 3.08805C10.0111 3.20762 10.2221 3.38028 10.387 3.59305C10.5508 3.79899 10.639 4.0549 10.637 4.31805V5.29305C10.6396 5.31245 10.6377 5.3322 10.6315 5.35076C10.6252 5.36931 10.6148 5.38617 10.6009 5.40002C10.5871 5.41386 10.5702 5.42432 10.5517 5.43057C10.5331 5.43682 10.5134 5.4387 10.494 5.43605H9.43895C9.41955 5.4387 9.3998 5.43682 9.38125 5.43057C9.36269 5.42432 9.34583 5.41386 9.33199 5.40002C9.31814 5.38617 9.30768 5.36931 9.30143 5.35076C9.29518 5.3322 9.29331 5.31245 9.29595 5.29305V4.67605C9.29595 4.41938 9.10062 4.21938 8.70995 4.07605C8.31651 3.92949 7.89981 3.8553 7.47995 3.85705C7.10097 3.84341 6.72332 3.90924 6.3713 4.05029C6.01928 4.19134 5.70067 4.40449 5.43595 4.67605C5.16927 4.95979 4.96186 5.29388 4.82587 5.65876C4.68988 6.02364 4.62803 6.41198 4.64395 6.80105C4.61503 7.62345 4.90898 8.42454 5.46295 9.03305C5.72755 9.32119 6.05107 9.54901 6.41152 9.70103C6.77198 9.85304 7.16093 9.92569 7.55195 9.91405C7.9727 9.91141 8.39007 9.83875 8.78695 9.69905C9.20429 9.55572 9.41295 9.35905 9.41295 9.10905V8.47805C9.41263 8.45956 9.41601 8.44119 9.42288 8.42402C9.42974 8.40685 9.43997 8.39122 9.45295 8.37805C9.46507 8.36533 9.47966 8.35523 9.49583 8.34835C9.51199 8.34147 9.52939 8.33797 9.54695 8.33805H10.612C10.6492 8.33794 10.6851 8.35228 10.712 8.37805C10.7262 8.39052 10.7376 8.4059 10.7453 8.42316C10.7531 8.44041 10.7571 8.45913 10.757 8.47805H10.754ZM7.33695 1.16005C6.5725 1.15778 5.81578 1.313 5.11395 1.61605C3.7354 2.18895 2.63985 3.2845 2.06695 4.66305C1.76594 5.36552 1.61073 6.1218 1.61073 6.88605C1.61073 7.6503 1.76594 8.40658 2.06695 9.10905C2.63983 10.487 3.73497 11.5822 5.11295 12.1551C5.81542 12.4561 6.57171 12.6113 7.33595 12.6113C8.1002 12.6113 8.85649 12.4561 9.55895 12.1551C10.9375 11.5822 12.0331 10.4866 12.606 9.10805C12.907 8.40558 13.0622 7.6493 13.0622 6.88505C13.0622 6.1208 12.907 5.36452 12.606 4.66205C12.0331 3.28406 10.9379 2.18893 9.55995 1.61605C8.85813 1.313 8.10141 1.15778 7.33695 1.16005ZM14.208 6.88605C14.2175 8.09772 13.8992 9.28942 13.287 10.3351C12.6871 11.3731 11.825 12.2352 10.787 12.835C9.73753 13.4392 8.54785 13.7572 7.33695 13.7572C6.12605 13.7572 4.93638 13.4392 3.88695 12.835C2.84893 12.2352 1.98679 11.3731 1.38695 10.3351C0.782817 9.28562 0.464844 8.09595 0.464844 6.88505C0.464844 5.67415 0.782817 4.48448 1.38695 3.43505C1.98679 2.39702 2.84893 1.53489 3.88695 0.93505C4.93638 0.330913 6.12605 0.0129395 7.33695 0.0129395C8.54785 0.0129395 9.73753 0.330913 10.787 0.93505C11.825 1.53489 12.6871 2.39702 13.287 3.43505C13.8992 4.48136 14.2181 5.6738 14.208 6.88605Z" fill="white"/>
</svg>
