<svg width="27" height="27" viewBox="0 0 27 27" fill="none" xmlns="http://www.w3.org/2000/svg">
<path id="Icon metro-copyright" d="M19.8609 16.147V17.992C19.8612 18.556 19.6391 19.0975 19.2429 19.499C18.8001 19.9611 18.2552 20.3132 17.6519 20.527C17.0029 20.7695 16.3336 20.9535 15.6519 21.077C14.9958 21.1986 14.3301 21.2608 13.6629 21.263C12.5863 21.291 11.5154 21.0965 10.5174 20.6916C9.51937 20.2868 8.61569 19.6802 7.8629 18.91C7.09866 18.1421 6.49834 17.2271 6.09834 16.2203C5.69834 15.2135 5.50699 14.1359 5.5359 13.053C5.51227 11.9907 5.70408 10.9346 6.09977 9.94845C6.49545 8.96231 7.0868 8.06655 7.83814 7.31521C8.58949 6.56387 9.48525 5.97251 10.4714 5.57683C11.4575 5.18115 12.5136 4.98934 13.5759 5.01296C14.003 5.01544 14.4296 5.04081 14.8539 5.08896C15.3852 5.15029 15.9113 5.25056 16.4279 5.38896C16.9684 5.52637 17.4932 5.7194 17.9939 5.96496C18.4505 6.19125 18.8498 6.51811 19.1619 6.92096C19.4721 7.3103 19.6394 7.7942 19.6359 8.29196V10.137C19.6413 10.1738 19.638 10.2114 19.6262 10.2467C19.6145 10.282 19.5947 10.3141 19.5684 10.3405C19.5421 10.3668 19.51 10.3866 19.4746 10.3983C19.4393 10.41 19.4017 10.4133 19.3649 10.408H17.3649C17.3281 10.4133 17.2905 10.41 17.2552 10.3983C17.2198 10.3866 17.1877 10.3668 17.1614 10.3405C17.1351 10.3141 17.1153 10.282 17.1035 10.2467C17.0918 10.2114 17.0885 10.1738 17.0939 10.137V8.95296C17.0939 8.46763 16.7242 8.08663 15.9849 7.80996C15.2406 7.53249 14.4522 7.3919 13.6579 7.39496C12.9408 7.36902 12.2262 7.49344 11.56 7.76021C10.8939 8.02699 10.2909 8.43021 9.7899 8.94396C9.28513 9.48063 8.89247 10.1126 8.63491 10.8028C8.37735 11.4931 8.26006 12.2278 8.2899 12.964C8.23504 14.5199 8.79098 16.0355 9.8389 17.187C10.3395 17.7323 10.9517 18.1634 11.6338 18.451C12.3159 18.7387 13.052 18.8761 13.7919 18.854C14.5877 18.8492 15.3772 18.712 16.1279 18.448C16.9179 18.1773 17.3129 17.805 17.3129 17.331V16.147C17.3116 16.111 17.3177 16.0751 17.3307 16.0416C17.3438 16.0081 17.3636 15.9776 17.3889 15.952C17.4118 15.9278 17.4394 15.9086 17.47 15.8956C17.5007 15.8825 17.5336 15.8758 17.5669 15.876H19.5809C19.6503 15.8766 19.7169 15.9038 19.7669 15.952C19.7945 15.9762 19.8165 16.0063 19.8312 16.04C19.8459 16.0737 19.8529 16.1102 19.8519 16.147H19.8609ZM13.3949 2.30096C11.9485 2.29674 10.5168 2.59051 9.1889 3.16396C6.5815 4.2478 4.50919 6.31975 3.4249 8.92696C2.85525 10.2562 2.56152 11.6873 2.56152 13.1335C2.56152 14.5796 2.85525 16.0107 3.4249 17.34C4.50897 19.9476 6.58131 22.0199 9.1889 23.104C10.5182 23.6736 11.9492 23.9673 13.3954 23.9673C14.8416 23.9673 16.2726 23.6736 17.6019 23.104C20.2095 22.0199 22.2818 19.9476 23.3659 17.34C23.9355 16.0107 24.2292 14.5796 24.2292 13.1335C24.2292 11.6873 23.9355 10.2562 23.3659 8.92696C22.2818 6.31938 20.2095 4.24703 17.6019 3.16296C16.274 2.58948 14.8423 2.29571 13.3959 2.29996L13.3949 2.30096ZM26.3949 13.134C26.4123 15.4264 25.8097 17.6809 24.6509 19.659C23.5174 21.6231 21.8876 23.2549 19.9249 24.391C17.9468 25.5495 15.6922 26.1517 13.3999 26.134C11.1076 26.1517 8.85304 25.5495 6.8749 24.391C4.91048 23.2559 3.27896 21.6244 2.1439 19.66C0.983136 17.6821 0.378807 15.4272 0.394899 13.134C0.377472 10.8415 0.980059 8.58701 2.1389 6.60896C3.27382 4.64418 4.90535 3.0123 6.8699 1.87696C8.84804 0.718474 11.1026 0.116235 13.3949 0.133965C15.6889 0.115332 17.9453 0.717603 19.9249 1.87696C21.8893 3.01203 23.5208 4.64355 24.6559 6.60796C25.8132 8.5868 26.414 10.8417 26.3949 13.134Z" fill="white"/>
</svg>
