<svg width="24" height="23" viewBox="0 0 24 23" fill="none" xmlns="http://www.w3.org/2000/svg">
<path id="Icon awesome-instagram" d="M12.024 5.48899C10.8925 5.48899 9.78629 5.8245 8.84538 6.45311C7.90446 7.08172 7.17106 7.9752 6.73789 9.02058C6.30471 10.066 6.19122 11.2163 6.41177 12.3262C6.63231 13.4361 7.17698 14.4556 7.97691 15.256C8.77685 16.0563 9.79613 16.6016 10.9059 16.8227C12.0157 17.0438 13.1661 16.9309 14.2117 16.4983C15.2573 16.0657 16.1511 15.3327 16.7802 14.3921C17.4093 13.4516 17.7454 12.3456 17.746 11.214C17.7476 10.462 17.6007 9.71706 17.3138 9.02195C17.0268 8.32684 16.6054 7.69523 16.0738 7.16334C15.5422 6.63145 14.9108 6.20974 14.2158 5.92242C13.5209 5.6351 12.776 5.4878 12.024 5.48899ZM12.024 14.931C11.2883 14.931 10.5691 14.7128 9.95732 14.3041C9.34556 13.8953 8.86876 13.3143 8.5872 12.6346C8.30565 11.9548 8.23198 11.2069 8.37552 10.4853C8.51905 9.76364 8.87335 9.1008 9.3936 8.58055C9.91385 8.0603 10.5767 7.706 11.2983 7.56247C12.0199 7.41893 12.7679 7.4926 13.4476 7.77416C14.1274 8.05571 14.7083 8.53252 15.1171 9.14427C15.5259 9.75602 15.744 10.4752 15.744 11.211C15.7422 12.197 15.3497 13.1421 14.6524 13.8394C13.9552 14.5366 13.0101 14.9291 12.024 14.931ZM19.315 5.25499C19.315 5.51903 19.2367 5.77713 19.09 5.99667C18.9434 6.21621 18.7349 6.38732 18.4909 6.48837C18.247 6.58941 17.9786 6.61585 17.7196 6.56434C17.4606 6.51283 17.2228 6.38568 17.0361 6.19898C16.8493 6.01227 16.7222 5.7744 16.6707 5.51543C16.6192 5.25647 16.6456 4.98805 16.7467 4.74411C16.8477 4.50017 17.0188 4.29167 17.2384 4.14498C17.4579 3.99828 17.716 3.91999 17.98 3.91999C18.1555 3.91959 18.3292 3.95385 18.4914 4.0208C18.6535 4.08775 18.8009 4.18607 18.9249 4.31012C19.049 4.43416 19.1473 4.58149 19.2142 4.74364C19.2812 4.90579 19.3154 5.07956 19.315 5.25499ZM23.105 6.61399C23.143 4.87931 22.4964 3.19946 21.305 1.93799C20.0407 0.751193 18.3628 0.105281 16.629 0.137988C14.786 0.0379883 9.26304 0.0379883 7.42104 0.137988C5.6871 0.104215 4.00877 0.750276 2.74504 1.93799C1.55611 3.19743 0.907495 4.87228 0.938037 6.60399C0.838037 8.44699 0.838037 13.97 0.938037 15.812C0.900069 17.5467 1.54672 19.2265 2.73804 20.488C4.00281 21.6741 5.68043 22.3198 7.41404 22.288C9.25704 22.388 14.78 22.388 16.622 22.288C18.3566 22.3254 20.0363 21.6788 21.298 20.488C22.487 19.2253 23.1354 17.548 23.105 15.814C23.205 13.971 23.205 8.45299 23.105 6.61399ZM20.725 17.79C20.5359 18.2706 20.2499 18.7072 19.8849 19.0726C19.5198 19.438 19.0835 19.7244 18.603 19.914C17.134 20.497 13.648 20.362 12.024 20.362C10.4 20.362 6.90904 20.491 5.44504 19.914C4.96478 19.7246 4.52858 19.4385 4.16354 19.0735C3.7985 18.7084 3.51241 18.2722 3.32304 17.792C2.74104 16.321 2.87504 12.834 2.87504 11.214C2.87504 9.59399 2.74604 6.09899 3.32304 4.63499C3.51252 4.15491 3.79867 3.71891 4.1637 3.35405C4.52874 2.98919 4.96487 2.70325 5.44504 2.51399C6.91404 1.93099 10.4 2.06599 12.024 2.06599C13.648 2.06599 17.139 1.93699 18.603 2.51399C19.0829 2.70291 19.5189 2.98839 19.8839 3.35272C20.2489 3.71705 20.5352 4.15247 20.725 4.63199C21.308 6.10099 21.173 9.58699 21.173 11.211C21.173 12.835 21.307 16.326 20.725 17.79Z" fill="white"/>
</svg>
