<svg width="19" height="19" viewBox="0 0 19 19" fill="none" xmlns="http://www.w3.org/2000/svg">
<path id="Icon awesome-linkedin" d="M16.986 0.25H1.62001C1.27963 0.252643 0.954191 0.390122 0.715007 0.632305C0.475823 0.874488 0.34241 1.20162 0.344008 1.542V16.88C0.34241 17.2204 0.475823 17.5475 0.715007 17.7897C0.954191 18.0319 1.27963 18.1694 1.62001 18.172H16.986C17.3268 18.1696 17.6528 18.0324 17.8927 17.7902C18.1326 17.5481 18.2668 17.2208 18.266 16.88V1.542C18.2668 1.20117 18.1326 0.873896 17.8927 0.63177C17.6528 0.389645 17.3268 0.252379 16.986 0.25ZM5.76101 15.612H3.10401V7.059H5.76401V15.612H5.76101ZM4.43301 5.891C4.12843 5.891 3.83068 5.80068 3.57743 5.63146C3.32418 5.46225 3.12679 5.22173 3.01023 4.94033C2.89367 4.65893 2.86318 4.34929 2.9226 4.05056C2.98202 3.75183 3.12869 3.47743 3.34406 3.26206C3.55944 3.04668 3.83384 2.90001 4.13257 2.84059C4.4313 2.78117 4.74094 2.81167 5.02234 2.92823C5.30374 3.04478 5.54425 3.24217 5.71347 3.49542C5.88269 3.74867 5.97301 4.04642 5.97301 4.351C5.97274 4.75935 5.81041 5.1509 5.52166 5.43965C5.23291 5.7284 4.84136 5.89073 4.43301 5.891ZM15.719 15.612H13.062V11.451C13.062 10.459 13.042 9.183 11.682 9.183C10.298 9.183 10.082 10.263 10.082 11.383V15.616H7.42901V7.059H9.97701V8.227H10.013C10.2689 7.7914 10.6378 7.43313 11.0808 7.19018C11.5237 6.94723 12.0241 6.82865 12.529 6.847C15.217 6.847 15.717 8.619 15.717 10.924L15.719 15.612Z" fill="white"/>
</svg>
