<svg width="224" height="44" viewBox="0 0 224 44" fill="none" xmlns="http://www.w3.org/2000/svg">
<path d="M46.6094 34.881V10.8185H56.2344V15.4669H51.5039V20.1564H56.043V24.6818H51.5039V30.1915H56.5488V34.881H46.6094ZM62.0996 35.0997C61.1517 35.0997 60.3997 34.9266 59.8438 34.5802C59.2878 34.2338 58.873 33.7553 58.5996 33.1447C58.3262 32.534 58.1439 31.8185 58.0527 30.9982C57.9707 30.1779 57.9297 29.2983 57.9297 28.3595V19.4454C57.9297 17.8686 58.2077 16.5926 58.7637 15.6173C59.3288 14.642 60.2812 14.1544 61.6211 14.1544C62.6146 14.1544 63.3757 14.3686 63.9043 14.797C64.4421 15.2163 64.8568 15.8042 65.1484 16.5607V10.8185H70.125V34.881H65.1484V32.7072C64.875 33.4454 64.5104 34.0288 64.0547 34.4572C63.6081 34.8855 62.9564 35.0997 62.0996 35.0997ZM63.9727 31.2716C64.4375 31.2716 64.7474 31.0848 64.9023 30.7111C65.0664 30.3374 65.1484 29.6674 65.1484 28.7013V20.0743C65.1484 19.5913 65.0755 19.1173 64.9297 18.6525C64.793 18.1785 64.4831 17.9415 64 17.9415C63.4714 17.9415 63.1387 18.1648 63.002 18.6115C62.8652 19.0581 62.7969 19.5457 62.7969 20.0743V28.7013C62.7969 30.4148 63.1888 31.2716 63.9727 31.2716ZM76.0449 35.0997C75.097 35.0997 74.3451 34.9266 73.7891 34.5802C73.2331 34.2338 72.8184 33.7553 72.5449 33.1447C72.2715 32.534 72.0892 31.8185 71.998 30.9982C71.916 30.1779 71.875 29.2983 71.875 28.3595V19.4454C71.875 17.8686 72.153 16.5926 72.709 15.6173C73.2741 14.642 74.2266 14.1544 75.5664 14.1544C76.5599 14.1544 77.321 14.3686 77.8496 14.797C78.3874 15.2163 78.8021 15.8042 79.0938 16.5607V10.8185H84.0703V34.881H79.0938V32.7072C78.8203 33.4454 78.4557 34.0288 78 34.4572C77.5534 34.8855 76.9017 35.0997 76.0449 35.0997ZM77.918 31.2716C78.3828 31.2716 78.6927 31.0848 78.8477 30.7111C79.0117 30.3374 79.0938 29.6674 79.0938 28.7013V20.0743C79.0938 19.5913 79.0208 19.1173 78.875 18.6525C78.7383 18.1785 78.4284 17.9415 77.9453 17.9415C77.4167 17.9415 77.084 18.1648 76.9473 18.6115C76.8105 19.0581 76.7422 19.5457 76.7422 20.0743V28.7013C76.7422 30.4148 77.1341 31.2716 77.918 31.2716ZM85.9297 13.1154V9.04114H90.8242V13.1154H85.9297ZM85.9297 34.881V14.3732H90.8242V34.881H85.9297ZM98.5078 35.0997C97.0495 35.0997 95.8874 34.8263 95.0215 34.2794C94.1556 33.7325 93.5358 32.9441 93.1621 31.9142C92.7884 30.8842 92.6016 29.6447 92.6016 28.1954V19.9513C92.6016 18.0463 93.1484 16.6062 94.2422 15.631C95.3359 14.6466 96.8398 14.1544 98.7539 14.1544C102.691 14.1544 104.66 16.0867 104.66 19.9513V21.4415C104.66 23.2462 104.642 24.4585 104.605 25.0782H97.4961V29.0431C97.4961 29.4077 97.5189 29.7677 97.5645 30.1232C97.61 30.4695 97.7103 30.7566 97.8652 30.9845C98.0293 31.2124 98.2891 31.3263 98.6445 31.3263C99.1549 31.3263 99.474 31.1075 99.6016 30.67C99.7292 30.2234 99.793 29.6447 99.793 28.9337V26.965H104.66V28.1271C104.66 29.6583 104.469 30.9435 104.086 31.9825C103.712 33.0125 103.074 33.7918 102.172 34.3204C101.279 34.84 100.057 35.0997 98.5078 35.0997ZM97.4688 22.6447H99.793V19.8829C99.793 19.1447 99.7018 18.616 99.5195 18.297C99.3372 17.9689 99.0638 17.8048 98.6992 17.8048C98.3073 17.8048 98.002 17.9598 97.7832 18.2697C97.5736 18.5795 97.4688 19.1173 97.4688 19.8829V22.6447ZM113.082 34.881V10.8185H122.707V15.4669H117.977V20.1564H122.516V24.6818H117.977V30.1915H123.021V34.881H113.082ZM124.539 34.881V14.3732H129.434V16.9845C129.616 16.2006 129.953 15.5353 130.445 14.9884C130.947 14.4324 131.639 14.1544 132.523 14.1544C133.945 14.1544 134.975 14.5919 135.613 15.4669C136.26 16.3419 136.584 17.5405 136.584 19.0626V34.881H131.758V19.5685C131.758 19.1674 131.676 18.7983 131.512 18.4611C131.348 18.1147 131.065 17.9415 130.664 17.9415C130.29 17.9415 130.012 18.0737 129.83 18.338C129.657 18.5932 129.548 18.9168 129.502 19.3087C129.456 19.6915 129.434 20.0743 129.434 20.4572V34.881H124.539ZM144.035 38.4357C143.087 38.4357 142.271 38.3855 141.588 38.2853C140.913 38.1941 140.307 38.0255 139.77 37.7794C139.232 37.5333 138.694 37.187 138.156 36.7404L139.811 33.9103C141.005 34.6212 142.199 34.9767 143.393 34.9767C144.176 34.9767 144.76 34.726 145.143 34.2247C145.525 33.7234 145.717 33.0717 145.717 32.2697V30.2599C145.325 31.6635 144.281 32.3654 142.586 32.3654C141.611 32.3654 140.822 32.1329 140.221 31.6681C139.619 31.2032 139.182 30.5743 138.908 29.7814C138.635 28.9884 138.498 28.1043 138.498 27.129V19.7599C138.498 18.657 138.617 17.6863 138.854 16.8478C139.09 16.0001 139.505 15.3393 140.098 14.8654C140.69 14.3914 141.52 14.1544 142.586 14.1544C143.488 14.1544 144.19 14.3823 144.691 14.838C145.202 15.2937 145.544 15.909 145.717 16.6837V14.3732H150.707V31.9552C150.707 34.2794 150.169 35.9383 149.094 36.9318C148.027 37.9344 146.341 38.4357 144.035 38.4357ZM144.568 28.674C145.334 28.674 145.717 27.9812 145.717 26.5958V19.6232C145.717 19.2495 145.607 18.8667 145.389 18.4747C145.179 18.0828 144.887 17.8868 144.514 17.8868C144.04 17.8868 143.743 18.0646 143.625 18.42C143.507 18.7664 143.447 19.1674 143.447 19.6232V26.5958C143.447 27.088 143.507 27.5574 143.625 28.004C143.753 28.4506 144.067 28.674 144.568 28.674ZM152.594 13.1154V9.04114H157.488V13.1154H152.594ZM152.594 34.881V14.3732H157.488V34.881H152.594ZM159.43 34.881V14.3732H164.324V16.9845C164.507 16.2006 164.844 15.5353 165.336 14.9884C165.837 14.4324 166.53 14.1544 167.414 14.1544C168.836 14.1544 169.866 14.5919 170.504 15.4669C171.151 16.3419 171.475 17.5405 171.475 19.0626V34.881H166.648V19.5685C166.648 19.1674 166.566 18.7983 166.402 18.4611C166.238 18.1147 165.956 17.9415 165.555 17.9415C165.181 17.9415 164.903 18.0737 164.721 18.338C164.548 18.5932 164.438 18.9168 164.393 19.3087C164.347 19.6915 164.324 20.0743 164.324 20.4572V34.881H159.43ZM179.145 35.0997C177.686 35.0997 176.524 34.8263 175.658 34.2794C174.792 33.7325 174.173 32.9441 173.799 31.9142C173.425 30.8842 173.238 29.6447 173.238 28.1954V19.9513C173.238 18.0463 173.785 16.6062 174.879 15.631C175.973 14.6466 177.477 14.1544 179.391 14.1544C183.328 14.1544 185.297 16.0867 185.297 19.9513V21.4415C185.297 23.2462 185.279 24.4585 185.242 25.0782H178.133V29.0431C178.133 29.4077 178.156 29.7677 178.201 30.1232C178.247 30.4695 178.347 30.7566 178.502 30.9845C178.666 31.2124 178.926 31.3263 179.281 31.3263C179.792 31.3263 180.111 31.1075 180.238 30.67C180.366 30.2234 180.43 29.6447 180.43 28.9337V26.965H185.297V28.1271C185.297 29.6583 185.105 30.9435 184.723 31.9825C184.349 33.0125 183.711 33.7918 182.809 34.3204C181.915 34.84 180.694 35.0997 179.145 35.0997ZM178.105 22.6447H180.43V19.8829C180.43 19.1447 180.339 18.616 180.156 18.297C179.974 17.9689 179.701 17.8048 179.336 17.8048C178.944 17.8048 178.639 17.9598 178.42 18.2697C178.21 18.5795 178.105 19.1173 178.105 19.8829V22.6447ZM192.816 35.0997C191.358 35.0997 190.196 34.8263 189.33 34.2794C188.464 33.7325 187.844 32.9441 187.471 31.9142C187.097 30.8842 186.91 29.6447 186.91 28.1954V19.9513C186.91 18.0463 187.457 16.6062 188.551 15.631C189.645 14.6466 191.148 14.1544 193.062 14.1544C197 14.1544 198.969 16.0867 198.969 19.9513V21.4415C198.969 23.2462 198.951 24.4585 198.914 25.0782H191.805V29.0431C191.805 29.4077 191.827 29.7677 191.873 30.1232C191.919 30.4695 192.019 30.7566 192.174 30.9845C192.338 31.2124 192.598 31.3263 192.953 31.3263C193.464 31.3263 193.783 31.1075 193.91 30.67C194.038 30.2234 194.102 29.6447 194.102 28.9337V26.965H198.969V28.1271C198.969 29.6583 198.777 30.9435 198.395 31.9825C198.021 33.0125 197.383 33.7918 196.48 34.3204C195.587 34.84 194.366 35.0997 192.816 35.0997ZM191.777 22.6447H194.102V19.8829C194.102 19.1447 194.01 18.616 193.828 18.297C193.646 17.9689 193.372 17.8048 193.008 17.8048C192.616 17.8048 192.311 17.9598 192.092 18.2697C191.882 18.5795 191.777 19.1173 191.777 19.8829V22.6447ZM200.746 34.881V14.3732H205.723V16.6564C205.96 15.8634 206.379 15.2436 206.98 14.797C207.582 14.3504 208.339 14.1271 209.25 14.1271V18.215C208.849 18.215 208.37 18.2605 207.814 18.3517C207.258 18.4337 206.771 18.5522 206.352 18.7072C205.932 18.853 205.723 19.017 205.723 19.1993V34.881H200.746ZM216.072 35.0997C212.025 35.0997 210.002 33.049 210.002 28.9474V27.3204H214.924V29.7267C214.924 30.1915 215.015 30.5561 215.197 30.8204C215.38 31.0848 215.671 31.2169 216.072 31.2169C216.783 31.2169 217.139 30.6837 217.139 29.6173C217.139 28.7241 216.952 28.0587 216.578 27.6212C216.204 27.1746 215.749 26.7462 215.211 26.3361L212.6 24.3263C211.779 23.6883 211.155 23.0138 210.727 22.3029C210.298 21.5919 210.084 20.603 210.084 19.3361C210.084 18.1603 210.362 17.1896 210.918 16.424C211.483 15.6583 212.226 15.0887 213.146 14.715C214.076 14.3413 215.079 14.1544 216.154 14.1544C220.128 14.1544 222.115 16.1368 222.115 20.1017V20.4845H217.057V19.7052C217.057 19.295 216.984 18.8986 216.838 18.5157C216.701 18.1329 216.428 17.9415 216.018 17.9415C215.325 17.9415 214.979 18.3061 214.979 19.0353C214.979 19.7736 215.27 20.3523 215.854 20.7716L218.889 22.9865C219.837 23.67 220.63 24.4812 221.268 25.42C221.915 26.3588 222.238 27.6075 222.238 29.1661C222.238 31.0984 221.687 32.5704 220.584 33.5822C219.49 34.5939 217.986 35.0997 216.072 35.0997Z" fill="white"/>
<path d="M18.535 37.2551C28.7716 37.2551 37.07 28.9567 37.07 18.7201C37.07 8.48346 28.7716 0.185059 18.535 0.185059C8.2984 0.185059 0 8.48346 0 18.7201C0 28.9567 8.2984 37.2551 18.535 37.2551Z" fill="#FFB611"/>
<path d="M16.5332 25V12.9688H21.3457V15.293H18.9805V17.6377H21.25V19.9004H18.9805V22.6553H21.5029V25H16.5332Z" fill="black"/>
</svg>
