<svg width="306" height="63" viewBox="0 0 306 63" fill="none" xmlns="http://www.w3.org/2000/svg">
<path d="M66.3022 50.15V17.4938H79.3647V23.8024H72.9448V30.1666H79.105V36.3082H72.9448V43.7858H79.7915V50.15H66.3022ZM87.3247 50.4469C86.0382 50.4469 85.0177 50.2119 84.2632 49.7418C83.5086 49.2718 82.9458 48.6224 82.5747 47.7936C82.2036 46.9648 81.9562 45.9938 81.8325 44.8805C81.7212 43.7672 81.6655 42.5735 81.6655 41.2994V29.2018C81.6655 27.0618 82.0428 25.33 82.7974 24.0065C83.5643 22.6829 84.8569 22.0211 86.6753 22.0211C88.0236 22.0211 89.0565 22.3118 89.7739 22.8932C90.5037 23.4622 91.0666 24.2601 91.4624 25.2867V17.4938H98.2163V50.15H91.4624V47.1998C91.0913 48.2018 90.5965 48.9934 89.978 49.5748C89.3719 50.1562 88.4875 50.4469 87.3247 50.4469ZM89.8667 45.2516C90.4976 45.2516 90.9181 44.998 91.1284 44.4908C91.3511 43.9837 91.4624 43.0745 91.4624 41.7633V30.0553C91.4624 29.3997 91.3634 28.7565 91.1655 28.1256C90.98 27.4824 90.5594 27.1608 89.9038 27.1608C89.1864 27.1608 88.7349 27.4638 88.5493 28.0699C88.3638 28.6761 88.271 29.3378 88.271 30.0553V41.7633C88.271 44.0888 88.8029 45.2516 89.8667 45.2516ZM106.25 50.4469C104.964 50.4469 103.944 50.2119 103.189 49.7418C102.434 49.2718 101.872 48.6224 101.5 47.7936C101.129 46.9648 100.882 45.9938 100.758 44.8805C100.647 43.7672 100.591 42.5735 100.591 41.2994V29.2018C100.591 27.0618 100.969 25.33 101.723 24.0065C102.49 22.6829 103.783 22.0211 105.601 22.0211C106.949 22.0211 107.982 22.3118 108.7 22.8932C109.43 23.4622 109.992 24.2601 110.388 25.2867V17.4938H117.142V50.15H110.388V47.1998C110.017 48.2018 109.522 48.9934 108.904 49.5748C108.298 50.1562 107.413 50.4469 106.25 50.4469ZM108.792 45.2516C109.423 45.2516 109.844 44.998 110.054 44.4908C110.277 43.9837 110.388 43.0745 110.388 41.7633V30.0553C110.388 29.3997 110.289 28.7565 110.091 28.1256C109.906 27.4824 109.485 27.1608 108.83 27.1608C108.112 27.1608 107.661 27.4638 107.475 28.0699C107.29 28.6761 107.197 29.3378 107.197 30.0553V41.7633C107.197 44.0888 107.729 45.2516 108.792 45.2516ZM119.666 20.611V15.0817H126.308V20.611H119.666ZM119.666 50.15V22.318H126.308V50.15H119.666ZM136.736 50.4469C134.757 50.4469 133.18 50.0758 132.004 49.3336C130.829 48.5914 129.988 47.5214 129.481 46.1237C128.974 44.7259 128.72 43.0436 128.72 41.0768V29.8883C128.72 27.303 129.462 25.3486 130.947 24.025C132.431 22.6891 134.472 22.0211 137.07 22.0211C142.414 22.0211 145.085 24.6435 145.085 29.8883V31.9108C145.085 34.36 145.061 36.0052 145.011 36.8463H135.363V42.2272C135.363 42.722 135.394 43.2106 135.456 43.693C135.517 44.163 135.653 44.5527 135.864 44.8619C136.086 45.1712 136.439 45.3258 136.921 45.3258C137.614 45.3258 138.047 45.0289 138.22 44.4352C138.393 43.8291 138.48 43.0436 138.48 42.0787V39.4069H145.085V40.984C145.085 43.0621 144.826 44.8063 144.306 46.2164C143.799 47.6142 142.933 48.6718 141.708 49.3893C140.496 50.0944 138.839 50.4469 136.736 50.4469ZM135.326 33.5436H138.48V29.7955C138.48 28.7936 138.356 28.0761 138.109 27.6432C137.861 27.1979 137.49 26.9752 136.996 26.9752C136.464 26.9752 136.049 27.1855 135.752 27.6061C135.468 28.0267 135.326 28.7565 135.326 29.7955V33.5436ZM156.515 50.15V17.4938H169.578V23.8024H163.158V30.1666H169.318V36.3082H163.158V43.7858H170.004V50.15H156.515ZM172.064 50.15V22.318H178.707V25.8619C178.954 24.7981 179.412 23.8951 180.08 23.153C180.76 22.3984 181.7 22.0211 182.9 22.0211C184.83 22.0211 186.227 22.6149 187.093 23.8024C187.972 24.9899 188.411 26.6165 188.411 28.6823V50.15H181.861V29.3688C181.861 28.8245 181.75 28.3235 181.527 27.8658C181.304 27.3958 180.921 27.1608 180.376 27.1608C179.869 27.1608 179.492 27.3401 179.245 27.6989C179.01 28.0452 178.861 28.4843 178.799 29.0162C178.737 29.5358 178.707 30.0553 178.707 30.5748V50.15H172.064ZM198.523 54.9742C197.236 54.9742 196.129 54.9062 195.202 54.7701C194.286 54.6464 193.464 54.4176 192.734 54.0836C192.004 53.7496 191.274 53.2796 190.544 52.6735L192.79 48.8326C194.41 49.7975 196.03 50.2799 197.651 50.2799C198.715 50.2799 199.506 49.9397 200.026 49.2594C200.545 48.5791 200.805 47.6946 200.805 46.6061V43.8785C200.273 45.7835 198.857 46.736 196.556 46.736C195.233 46.736 194.163 46.4205 193.346 45.7897C192.53 45.1588 191.936 44.3053 191.565 43.2291C191.194 42.153 191.008 40.9531 191.008 39.6295V29.6285C191.008 28.1318 191.169 26.8144 191.491 25.6764C191.812 24.526 192.375 23.6292 193.179 22.986C193.983 22.3427 195.109 22.0211 196.556 22.0211C197.781 22.0211 198.733 22.3304 199.414 22.9489C200.106 23.5673 200.57 24.4023 200.805 25.4537V22.318H207.578V46.1793C207.578 49.3336 206.848 51.5849 205.388 52.9332C203.941 54.2939 201.653 54.9742 198.523 54.9742ZM199.247 41.7262C200.286 41.7262 200.805 40.7861 200.805 38.9059V29.443C200.805 28.9358 200.657 28.4163 200.36 27.8844C200.075 27.3525 199.68 27.0865 199.172 27.0865C198.529 27.0865 198.127 27.3278 197.966 27.8102C197.806 28.2802 197.725 28.8245 197.725 29.443V38.9059C197.725 39.5739 197.806 40.2109 197.966 40.817C198.139 41.4231 198.566 41.7262 199.247 41.7262ZM210.138 20.611V15.0817H216.781V20.611H210.138ZM210.138 50.15V22.318H216.781V50.15H210.138ZM219.416 50.15V22.318H226.058V25.8619C226.306 24.7981 226.763 23.8951 227.431 23.153C228.111 22.3984 229.052 22.0211 230.251 22.0211C232.181 22.0211 233.579 22.6149 234.445 23.8024C235.323 24.9899 235.762 26.6165 235.762 28.6823V50.15H229.212V29.3688C229.212 28.8245 229.101 28.3235 228.878 27.8658C228.656 27.3958 228.272 27.1608 227.728 27.1608C227.221 27.1608 226.844 27.3401 226.596 27.6989C226.361 28.0452 226.213 28.4843 226.151 29.0162C226.089 29.5358 226.058 30.0553 226.058 30.5748V50.15H219.416ZM246.171 50.4469C244.192 50.4469 242.615 50.0758 241.44 49.3336C240.265 48.5914 239.424 47.5214 238.917 46.1237C238.409 44.7259 238.156 43.0436 238.156 41.0768V29.8883C238.156 27.303 238.898 25.3486 240.382 24.025C241.867 22.6891 243.908 22.0211 246.505 22.0211C251.849 22.0211 254.521 24.6435 254.521 29.8883V31.9108C254.521 34.36 254.496 36.0052 254.447 36.8463H244.798V42.2272C244.798 42.722 244.829 43.2106 244.891 43.693C244.953 44.163 245.089 44.5527 245.299 44.8619C245.522 45.1712 245.875 45.3258 246.357 45.3258C247.05 45.3258 247.483 45.0289 247.656 44.4352C247.829 43.8291 247.916 43.0436 247.916 42.0787V39.4069H254.521V40.984C254.521 43.0621 254.261 44.8063 253.742 46.2164C253.235 47.6142 252.369 48.6718 251.144 49.3893C249.932 50.0944 248.274 50.4469 246.171 50.4469ZM244.761 33.5436H247.916V29.7955C247.916 28.7936 247.792 28.0761 247.544 27.6432C247.297 27.1979 246.926 26.9752 246.431 26.9752C245.899 26.9752 245.485 27.1855 245.188 27.6061C244.903 28.0267 244.761 28.7565 244.761 29.7955V33.5436ZM264.726 50.4469C262.747 50.4469 261.17 50.0758 259.995 49.3336C258.819 48.5914 257.978 47.5214 257.471 46.1237C256.964 44.7259 256.71 43.0436 256.71 41.0768V29.8883C256.71 27.303 257.453 25.3486 258.937 24.025C260.421 22.6891 262.462 22.0211 265.06 22.0211C270.404 22.0211 273.076 24.6435 273.076 29.8883V31.9108C273.076 34.36 273.051 36.0052 273.001 36.8463H263.353V42.2272C263.353 42.722 263.384 43.2106 263.446 43.693C263.508 44.163 263.644 44.5527 263.854 44.8619C264.077 45.1712 264.429 45.3258 264.912 45.3258C265.604 45.3258 266.037 45.0289 266.21 44.4352C266.384 43.8291 266.47 43.0436 266.47 42.0787V39.4069H273.076V40.984C273.076 43.0621 272.816 44.8063 272.296 46.2164C271.789 47.6142 270.923 48.6718 269.699 49.3893C268.486 50.0944 266.829 50.4469 264.726 50.4469ZM263.316 33.5436H266.47V29.7955C266.47 28.7936 266.347 28.0761 266.099 27.6432C265.852 27.1979 265.481 26.9752 264.986 26.9752C264.454 26.9752 264.04 27.1855 263.743 27.6061C263.458 28.0267 263.316 28.7565 263.316 29.7955V33.5436ZM275.488 50.15V22.318H282.242V25.4166C282.563 24.3405 283.132 23.4993 283.949 22.8932C284.765 22.2871 285.792 21.984 287.029 21.984V27.5319C286.485 27.5319 285.835 27.5937 285.081 27.7174C284.326 27.8287 283.664 27.9895 283.095 28.1998C282.526 28.3977 282.242 28.6204 282.242 28.8678V50.15H275.488ZM296.288 50.4469C290.795 50.4469 288.049 47.6637 288.049 42.0973V39.8893H294.729V43.1549C294.729 43.7858 294.853 44.2806 295.1 44.6393C295.347 44.998 295.743 45.1774 296.288 45.1774C297.252 45.1774 297.735 44.4537 297.735 43.0065C297.735 41.7942 297.481 40.8912 296.974 40.2975C296.467 39.6914 295.848 39.11 295.119 38.5533L291.575 35.8258C290.461 34.9599 289.614 34.0446 289.033 33.0797C288.451 32.1149 288.161 30.7727 288.161 29.0533C288.161 27.4576 288.538 26.1403 289.292 25.1012C290.059 24.0621 291.068 23.289 292.317 22.7819C293.579 22.2747 294.939 22.0211 296.399 22.0211C301.792 22.0211 304.489 24.7115 304.489 30.0924V30.6119H297.624V29.5543C297.624 28.9977 297.525 28.4596 297.327 27.9401C297.141 27.4205 296.77 27.1608 296.213 27.1608C295.273 27.1608 294.803 27.6556 294.803 28.6451C294.803 29.6471 295.199 30.4326 295.991 31.0016L300.11 34.0074C301.396 34.9352 302.472 36.0361 303.338 37.3102C304.217 38.5843 304.656 40.2789 304.656 42.3942C304.656 45.0166 303.907 47.0143 302.411 48.3873C300.926 49.7604 298.885 50.4469 296.288 50.4469Z" fill="white"/>
<path d="M26.394 53.544C40.971 53.544 52.788 41.727 52.788 27.15C52.788 12.573 40.971 0.755981 26.394 0.755981C11.817 0.755981 0 12.573 0 27.15C0 41.727 11.817 53.544 26.394 53.544Z" fill="#FFB612"/>
<path d="M21.876 37V17.2344H29.7822V21.0527H25.8965V24.9048H29.625V28.6221H25.8965V33.1479H30.0405V37H21.876Z" fill="black"/>
</svg>
