<svg width="23" height="22" viewBox="0 0 23 22" fill="none" xmlns="http://www.w3.org/2000/svg">
<path d="M21.447 18.58L16.331 14.229C15.9192 13.8145 15.3641 13.5736 14.78 13.556C16.1389 11.9646 16.8291 9.90888 16.706 7.81979C16.5829 5.73069 15.656 3.77031 14.1196 2.34945C12.5831 0.928581 10.5564 0.157504 8.46408 0.197792C6.37175 0.23808 4.37621 1.08661 2.89562 2.56557C1.41502 4.04453 0.564296 6.03913 0.5217 8.13142C0.479103 10.2237 1.24794 12.2513 2.66711 13.7893C4.08629 15.3273 6.04564 16.2563 8.1346 16.3817C10.2236 16.5071 12.28 15.8192 13.873 14.462C13.8908 15.0463 14.132 15.6014 14.547 16.013L18.898 21.129C19.0571 21.3289 19.2566 21.493 19.4836 21.6104C19.7105 21.7278 19.9596 21.7959 20.2147 21.8104C20.4698 21.8248 20.725 21.7852 20.9637 21.6941C21.2025 21.6031 21.4192 21.4626 21.5999 21.282C21.7806 21.1013 21.921 20.8845 22.0121 20.6458C22.1031 20.4071 22.1427 20.1519 22.1283 19.8968C22.1139 19.6417 22.0457 19.3925 21.9283 19.1656C21.8109 18.9387 21.6469 18.7392 21.447 18.58ZM8.61697 13.699C7.54895 13.699 6.50492 13.3823 5.6169 12.789C4.72887 12.1956 4.03674 11.3523 3.62802 10.3655C3.21931 9.37881 3.11237 8.29305 3.32073 7.24555C3.52909 6.19806 4.04339 5.23587 4.7986 4.48067C5.5538 3.72546 6.51599 3.21116 7.56349 3.0028C8.61098 2.79444 9.69674 2.90138 10.6835 3.31009C11.6702 3.71881 12.5135 4.41094 13.1069 5.29896C13.7003 6.18699 14.017 7.23102 14.017 8.29904C14.017 9.73121 13.448 11.1047 12.4354 12.1174C11.4227 13.1301 10.0491 13.699 8.61697 13.699Z" fill="#BCBCBC"/>
</svg>
