<svg width="23" height="22" viewBox="0 0 23 22" fill="none" xmlns="http://www.w3.org/2000/svg">
<rect width="23" height="22" fill="#1E1E1E"/>
<g id="Mobile - Home" clip-path="url(#clip0_0_1)">
<rect width="428" height="2090" transform="translate(-352 -80)" fill="black"/>
<g id="Nav Bar">
<path id="Search engine" d="M21.447 18.471L16.331 14.12C15.9192 13.7055 15.3641 13.4646 14.78 13.447C16.1389 11.8555 16.8291 9.79987 16.706 7.71078C16.5829 5.62168 15.656 3.66131 14.1196 2.24044C12.5831 0.819572 10.5564 0.0484948 8.46408 0.0887831C6.37175 0.129071 4.37621 0.977599 2.89562 2.45656C1.41502 3.93552 0.564296 5.93012 0.5217 8.02241C0.479103 10.1147 1.24794 12.1423 2.66711 13.6803C4.08629 15.2183 6.04564 16.1473 8.1346 16.2727C10.2236 16.3981 12.28 15.7102 13.873 14.353C13.8908 14.9372 14.132 15.4924 14.547 15.904L18.898 21.02C19.0571 21.2199 19.2566 21.3839 19.4836 21.5014C19.7105 21.6188 19.9596 21.6869 20.2147 21.7014C20.4698 21.7158 20.725 21.6762 20.9637 21.5851C21.2025 21.4941 21.4192 21.3536 21.5999 21.173C21.7806 20.9923 21.921 20.7755 22.0121 20.5368C22.1031 20.2981 22.1427 20.0428 22.1283 19.7878C22.1139 19.5327 22.0457 19.2835 21.9283 19.0566C21.8109 18.8297 21.6469 18.6302 21.447 18.471ZM8.61697 13.59C7.54895 13.59 6.50492 13.2733 5.6169 12.68C4.72887 12.0866 4.03674 11.2432 3.62802 10.2565C3.21931 9.2698 3.11237 8.18404 3.32073 7.13655C3.52909 6.08905 4.04339 5.12686 4.7986 4.37166C5.5538 3.61645 6.51599 3.10215 7.56349 2.89379C8.61098 2.68543 9.69674 2.79237 10.6835 3.20108C11.6702 3.6098 12.5135 4.30193 13.1069 5.18995C13.7003 6.07798 14.017 7.12201 14.017 8.19003C14.017 9.6222 13.448 10.9957 12.4354 12.0084C11.4227 13.0211 10.0491 13.59 8.61697 13.59Z" fill="white"/>
</g>
</g>
<defs>
<clipPath id="clip0_0_1">
<rect width="428" height="2090" fill="white" transform="translate(-352 -80)"/>
</clipPath>
</defs>
</svg>
