<svg width="16" height="19" viewBox="0 0 16 19" fill="none" xmlns="http://www.w3.org/2000/svg">
<path id="Icon simple-tiktok" d="M8.24003 0.359971C9.21903 0.344971 10.194 0.351971 11.16 0.344971C11.1901 1.51007 11.6566 2.62139 12.467 3.45897C13.3432 4.24616 14.4579 4.7169 15.633 4.79597V7.80497C14.5484 7.77918 13.4804 7.53284 12.494 7.08097C12.0738 6.8805 11.6693 6.64851 11.284 6.38697C11.277 8.56797 11.291 10.748 11.269 12.921C11.2122 13.9761 10.8632 14.9947 10.261 15.863C9.76519 16.581 9.1074 17.1724 8.3408 17.5893C7.5742 18.0063 6.72028 18.237 5.84803 18.263C4.77886 18.3117 3.71905 18.0442 2.80103 17.494C2.04544 17.0452 1.40536 16.4259 0.93201 15.6855C0.458658 14.9451 0.165172 14.1041 0.0750343 13.23C0.0600343 12.857 0.0530343 12.483 0.0680343 12.117C0.143858 11.3503 0.37644 10.6074 0.751346 9.93441C1.12625 9.26139 1.63548 8.6726 2.24743 8.20459C2.85937 7.73659 3.56097 7.39934 4.30869 7.21379C5.05641 7.02825 5.83428 6.99835 6.59403 7.12597C6.60903 8.23097 6.56403 9.33597 6.56403 10.442C6.2455 10.3302 5.90803 10.2825 5.57101 10.3016C5.23399 10.3207 4.90406 10.4062 4.60019 10.5533C4.29632 10.7003 4.0245 10.9059 3.80035 11.1583C3.57619 11.4107 3.40413 11.7049 3.29403 12.024C3.17889 12.4129 3.14485 12.8213 3.19403 13.224C3.29041 13.8376 3.6081 14.3946 4.08711 14.79C4.56612 15.1854 5.17331 15.3917 5.79403 15.37C6.21153 15.358 6.61943 15.2419 6.98073 15.0324C7.34203 14.8228 7.6453 14.5264 7.86303 14.17C8.0295 13.9356 8.1347 13.6634 8.16903 13.378C8.24403 12.041 8.21404 10.712 8.22104 9.37797C8.22803 6.36897 8.21403 3.36697 8.23603 0.364971L8.24003 0.359971Z" fill="white"/>
</svg>
