<svg width="21" height="17" viewBox="0 0 21 17" fill="none" xmlns="http://www.w3.org/2000/svg">
<path id="Icon awesome-twitter" d="M18.542 4.35602C18.554 4.53002 18.554 4.70402 18.554 4.87802C18.5644 6.37982 18.2762 7.86871 17.7063 9.25821C17.1364 10.6477 16.296 11.9101 15.234 12.9721C14.1721 14.034 12.9097 14.8744 11.5202 15.4443C10.1307 16.0142 8.64181 16.3024 7.14 16.292C4.95572 16.2977 2.81629 15.6723 0.979004 14.491C1.30075 14.5266 1.62431 14.5433 1.948 14.541C3.75377 14.5456 5.50844 13.9418 6.929 12.827C6.09194 12.8115 5.28062 12.535 4.60833 12.0361C3.93603 11.5371 3.43633 10.8407 3.179 10.044C3.42976 10.0837 3.68314 10.1044 3.937 10.106C4.29336 10.1049 4.64815 10.0588 4.993 9.96902C4.08436 9.7858 3.26718 9.29361 2.68036 8.57608C2.09354 7.85855 1.77328 6.95995 1.774 6.03302V5.98302C2.32981 6.29313 2.95101 6.46753 3.587 6.49202C2.7357 5.92409 2.13318 5.05274 1.90237 4.05575C1.67157 3.05876 1.82988 2.01127 2.345 1.12702C3.35236 2.36783 4.60937 3.38296 6.03445 4.10652C7.45952 4.83009 9.02082 5.24592 10.617 5.32702C10.5524 5.0249 10.5189 4.71696 10.517 4.40802C10.5179 3.60345 10.7605 2.81771 11.2133 2.15264C11.6661 1.48757 12.3082 0.973841 13.0564 0.678025C13.8047 0.382209 14.6245 0.31795 15.4096 0.493577C16.1948 0.669204 16.9091 1.07662 17.46 1.66302C18.3584 1.48988 19.2199 1.16201 20.006 0.694019C19.7067 1.62035 19.0799 2.40575 18.243 2.90302C19.0397 2.81232 19.8183 2.603 20.553 2.28202C20.0038 3.08159 19.3245 3.78276 18.542 4.35602Z" fill="white"/>
</svg>
